{"title":"Beyond Therapy (1987) 720p HDRip x264-pong","uid":15601338,"size":792840053,"categoryP":"video","categoryS":"movies","magnet":"?xt=urn:btih:44db34d19ade6ad9f8d351aace962b931a48a9e9&amp;dn=Beyond+Therapy+%281987%29+720p+HDRip+x264-pong&amp;tr=udp%3A%2F%2Ftracker.leechers-paradise.org%3A6969&amp;tr=udp%3A%2F%2Fzer0day.ch%3A1337&amp;tr=udp%3A%2F%2Fopen.demonii.com%3A1337&amp;tr=udp%3A%2F%2Ftracker.coppersurfer.tk%3A6969&amp;tr=udp%3A%2F%2Fexodus.desync.com%3A6969","seeders":0,"leechers":1,"uploader":"Pongydog","files":1,"time":1471653337,"description":"http://www.imdb.com/title/tt0092646\r\n\r\n\r\nThis is an insane and fast-paced romantic comedy about a bizarre dinner date among Bruce (Goldblum) and Prudence (Hagerty), and their lunatic therapists, and Bruce's jealous, gun-wielding ... See full summary » \r\n\r\nDirector: Robert Altman  \r\n\r\nWriters: Christopher Durang (screenplay),  Robert Altman (screenplay)  | 1 more credit » \r\n\r\nStars: Julie Hagerty,  Jeff Goldblum,  Glenda Jackson  | See full cast &amp; crew » \r\n\r\neneral\r\nComplete name                            : C:Usersuser1VideosBeyond Therapy (1987) 720p HDRip x264-pong.mp4\r\nFormat                                   : MPEG-4\r\nFormat profile                           : Base Media / Version 2\r\nCodec ID                                 : mp42 (isom/iso2/avc1/mp41)\r\nFile size                                : 756 MiB\r\nDuration                                 : 1h 33mn\r\nOverall bit rate mode                    : Variable\r\nOverall bit rate                         : 1 135 Kbps\r\nEncoded date                             : UTC 2016-08-19 06:26:16\r\nTagged date                              : UTC 2016-08-19 06:26:16\r\nWriting application                      : HandBrake 0.10.5 2016021100\r\n\r\nVideo\r\nID                                       : 1\r\nFormat                                   : AVC\r\nFormat/Info                              : Advanced Video Codec\r\nFormat profile                           :   \r\nFormat settings, CABAC                   : Yes\r\nFormat settings, ReFrames                : 8 frames\r\nCodec ID                                 : avc1\r\nCodec ID/Info                            : Advanced Video Coding\r\nDuration                                 : 1h 33mn\r\nBit rate                                 : 1 000 Kbps\r\nWidth                                    : 1 280 pixels\r\nHeight                                   : 704 pixels\r\nDisplay aspect ratio                     : 16:9\r\nFrame rate mode                          : Variable\r\nFrame rate                               : 23.976 (24000/1001) fps\r\nMinimum frame rate                       : 23.974 fps\r\nMaximum frame rate                       : 23.981 fps\r\nColor space                              : YUV\r\nChroma subsampling                       : 4:2:0\r\nBit depth                                : 8 bits\r\nScan type                                : Progressive\r\nBits/(Pixel*Frame)                       : 0.046\r\nStream size                              : 666 MiB (88%)\r\nWriting library                          : x264 core 142 r2479 dd79a61\r\nEncoding settings                        : cabac=1 / ref=8 / deblock=1:0:0 / analyse=0x3:0x133 / me=umh / subme=9 / psy=1 / psy_rd=1.00:0.00 / mixed_ref=1 / me_range=16 / chroma_me=1 / trellis=2 / 8x8dct=1 / cqm=0 / deadzone=21,11 / fast_pskip=1 / chroma_qp_offset=-2 / threads=3 / lookahead_threads=1 / sliced_threads=0 / nr=0 / decimate=1 / interlaced=0 / bluray_compat=0 / constrained_intra=0 / bframes=3 / b_pyramid=2 / b_adapt=2 / b_bias=0 / direct=3 / weightb=1 / open_gop=0 / weightp=2 / keyint=240 / keyint_min=24 / scenecut=40 / intra_refresh=0 / rc_lookahead=60 / rc=2pass / mbtree=1 / bitrate=1000 / ratetol=1.0 / qcomp=0.60 / qpmin=0 / qpmax=69 / qpstep=4 / cplxblur=20.0 / qblur=0.5 / vbv_maxrate=62500 / vbv_bufsize=78125 / nal_hrd=none / filler=0 / ip_ratio=1.40 / aq=1:1.00\r\nEncoded date                             : UTC 2016-08-19 06:26:16\r\nTagged date                              : UTC 2016-08-19 06:26:16\r\nColor range                              : Limited\r\nColor primaries                          : BT.709\r\nTransfer characteristics                 : BT.709\r\nMatrix coefficients                      : BT.709\r\nMenus                                    : 3\r\n\r\nAudio\r\nID                                       : 2\r\nFormat                                   : AAC\r\nFormat/Info                              : Advanced Audio Codec\r\nFormat profile                           : LC\r\nCodec ID                                 : 40\r\nDuration                                 : 1h 33mn\r\nBit rate mode                            : Variable\r\nBit rate                                 : 128 Kbps\r\nChannel(s)                               : 2 channels\r\nChannel positions                        : Front: L R\r\nSampling rate                            : 48.0 KHz\r\nFrame rate                               : 46.875 fps (1024 spf)\r\nCompression mode                         : Lossy\r\nStream size                              : 85.5 MiB (11%)\r\nTitle                                    : Stereo / Stereo\r\nLanguage                                 : English\r\nDefault                                  : Yes\r\nAlternate group                          : 1\r\nEncoded date                             : UTC 2016-08-19 06:26:16\r\nTagged date                              : UTC 2016-08-19 06:26:16\r\nMenus","torrent":{"xt":"urn:btih:44db34d19ade6ad9f8d351aace962b931a48a9e9","amp;dn":"Beyond+Therapy+%281987%29+720p+HDRip+x264-pong","amp;tr":["udp%3A%2F%2Ftracker.leechers-paradise.org%3A6969","udp%3A%2F%2Fzer0day.ch%3A1337","udp%3A%2F%2Fopen.demonii.com%3A1337","udp%3A%2F%2Ftracker.coppersurfer.tk%3A6969","udp%3A%2F%2Fexodus.desync.com%3A6969"],"infoHash":"44db34d19ade6ad9f8d351aace962b931a48a9e9","infoHashBuffer":{"type":"Buffer","data":[68,219,52,209,154,222,106,217,248,211,81,170,206,150,43,147,26,72,169,233]},"announce":[],"urlList":[]}}